<?xml version="1.0" standalone="no"?><!DOCTYPE svg PUBLIC "-//W3C//DTD SVG 1.1//EN" "http://www.w3.org/Graphics/SVG/1.1/DTD/svg11.dtd"><svg t="1631087228339" class="icon" viewBox="0 0 1024 1024" version="1.1" xmlns="http://www.w3.org/2000/svg" p-id="2493" xmlns:xlink="http://www.w3.org/1999/xlink" width="200" height="200"><defs><style type="text/css"></style></defs><path d="M234.666667 512c57.6 0 108.8-19.2 149.333333-53.333333 40.533333 34.133333 91.733333 53.333333 149.333333 53.333333 46.933333 0 91.733333-14.933333 128-38.4 36.266667 23.466667 81.066667 38.4 128 38.4 130.133333 0 234.666667-104.533333 234.666667-234.666667 0-121.6-93.866667-221.866667-213.333333-232.533333V42.666667H213.333333v2.133333C93.866667 55.466667 0 155.733333 0 277.333333c0 130.133333 104.533333 234.666667 234.666667 234.666667z m0-405.333333h554.666666c93.866667 0 170.666667 76.8 170.666667 170.666666s-76.8 170.666667-170.666667 170.666667c-27.733333 0-85.333333-4.266667-85.333333-21.333333v-74.666667c0-17.066667-14.933333-32-32-32s-32 14.933333-32 32v55.466667c0 19.2-64 40.533333-106.666667 40.533333-51.2 0-96-23.466667-128-57.6v-38.4c0-17.066667-14.933333-32-32-32s-32 14.933333-32 32v49.066667c0 2.133333-2.133333 6.4-2.133333 10.666666-29.866667 23.466667-66.133333 36.266667-106.666667 36.266667-93.866667 0-170.666667-76.8-170.666666-170.666667C64 183.466667 140.8 106.666667 234.666667 106.666667zM928 554.666667c-17.066667 0-32 14.933333-32 32V853.333333c0 36.266667-27.733333 64-64 64H192c-36.266667 0-64-27.733333-64-64V586.666667c0-17.066667-14.933333-32-32-32S64 569.6 64 586.666667V874.666667c0 59.733333 46.933333 106.666667 106.666667 106.666666h682.666666c59.733333 0 106.666667-46.933333 106.666667-106.666666V586.666667c0-17.066667-14.933333-32-32-32z" fill="#FF2D78" p-id="2494"></path><path d="M704 693.333333v85.333334c0 17.066667 14.933333 32 32 32s32-14.933333 32-32v-85.333334c0-17.066667-14.933333-32-32-32s-32 14.933333-32 32z" fill="#FF2D78" p-id="2495"></path></svg>